<?xml version="1.0" standalone="no"?>
<!DOCTYPE svg PUBLIC "-//W3C//DTD SVG 20010904//EN"
 "http://www.w3.org/TR/2001/REC-SVG-20010904/DTD/svg10.dtd">
<svg version="1.0" xmlns="http://www.w3.org/2000/svg"
 width="750.000000pt" height="750.000000pt" viewBox="0 0 750.000000 750.000000"
 preserveAspectRatio="xMidYMid meet">
<metadata>
Created by potrace 1.14, written by Peter Selinger 2001-2017
</metadata>
<g transform="translate(0.000000,750.000000) scale(0.100000,-0.100000)"
fill="#000000" stroke="none">
<path d="M3617 6694 c-1 -1 -40 -4 -87 -8 -86 -7 -109 -9 -190 -20 -52 -8 -85
-14 -85 -16 0 -1 -11 -3 -25 -5 -14 -2 -36 -6 -50 -9 -14 -3 -35 -8 -48 -10
-12 -3 -27 -8 -34 -12 -6 -4 -21 -8 -32 -9 -12 -1 -34 -7 -51 -14 -37 -15 -59
-22 -65 -23 -22 -3 -151 -57 -225 -94 -93 -46 -102 -51 -172 -96 -23 -16 -46
-28 -52 -28 -6 0 -11 -4 -11 -10 0 -5 -4 -10 -10 -10 -5 0 -19 -8 -29 -17 -11
-10 -41 -36 -67 -58 -59 -49 -167 -158 -202 -205 -15 -19 -34 -43 -43 -53 -9
-9 -22 -30 -30 -45 -8 -15 -22 -36 -31 -46 -10 -10 -15 -23 -12 -28 3 -4 1 -8
-4 -8 -6 0 -24 -30 -42 -67 -18 -37 -39 -73 -46 -81 -13 -12 -18 -34 -15 -54
0 -5 -3 -8 -9 -8 -5 0 -10 -7 -10 -15 0 -7 -20 -56 -44 -107 -38 -81 -55 -123
-62 -150 -1 -5 -3 -10 -4 -13 -1 -3 -3 -9 -4 -13 -2 -12 -56 -75 -56 -65 -1 4
-8 -1 -18 -13 -9 -11 -21 -21 -27 -22 -5 -1 -19 -10 -30 -19 -11 -10 -45 -34
-75 -54 -30 -20 -70 -50 -87 -68 -18 -17 -38 -31 -45 -31 -6 0 -9 -2 -6 -5 3
-3 -21 -31 -52 -63 -54 -55 -143 -158 -204 -236 -37 -47 -116 -175 -116 -187
0 -5 -4 -9 -9 -9 -5 0 -18 -17 -29 -37 -64 -122 -101 -198 -97 -201 2 -3 -2
-14 -10 -26 -8 -11 -15 -30 -15 -41 0 -18 2 -17 25 7 14 15 25 34 25 42 0 8 7
22 16 30 12 12 12 16 2 16 -8 0 -7 4 5 11 9 5 17 17 17 24 0 8 5 15 11 15 5 0
8 4 5 9 -3 5 8 22 24 40 17 17 30 34 30 38 0 8 11 21 97 122 80 92 234 241
328 316 28 21 54 45 58 52 4 7 15 13 22 13 8 0 15 4 15 8 0 5 27 27 60 50 56
38 60 40 70 22 6 -11 7 -37 3 -62 -8 -53 -9 -402 0 -441 15 -70 65 -187 78
-187 5 0 9 -5 9 -11 0 -17 40 -69 53 -69 7 0 18 9 25 21 8 12 9 18 2 14 -7 -4
-9 1 -5 17 4 13 8 33 10 44 2 10 4 19 5 19 1 0 4 18 6 39 3 21 9 47 14 57 6
10 10 29 10 42 0 13 9 49 19 80 11 30 17 57 15 59 -2 3 2 5 10 5 7 0 12 -9 11
-21 -1 -12 -3 -21 -4 -21 -1 0 -4 -22 -6 -50 -3 -27 -8 -68 -11 -90 -8 -48
-12 -108 -13 -193 -1 -36 -5 -61 -10 -57 -6 3 -7 -6 -2 -22 7 -28 7 -57 -3
-338 -6 -164 -16 -327 -21 -335 -2 -3 -6 -34 -10 -70 -3 -36 -9 -78 -12 -95
-3 -16 -7 -48 -8 -70 -4 -44 -13 -106 -20 -145 -3 -14 -7 -52 -10 -85 -7 -73
-12 -111 -24 -190 -5 -33 -12 -89 -15 -125 -4 -36 -10 -82 -15 -102 -5 -21 -6
-38 -2 -38 5 0 5 -21 1 -47 -4 -26 -6 -128 -5 -227 2 -162 6 -214 20 -321 14
-98 52 -253 66 -270 5 -5 9 -16 9 -25 0 -8 11 -32 25 -53 14 -20 22 -37 18
-37 -4 0 -3 -4 2 -8 6 -4 32 -34 57 -67 63 -83 137 -150 151 -136 7 7 6 15 -2
25 -7 8 -10 20 -6 26 3 5 3 10 -2 10 -4 0 -17 28 -27 62 -11 35 -22 68 -25 73
-3 6 -7 16 -8 23 -7 30 -12 47 -13 47 -3 0 -10 41 -13 72 -1 18 -5 33 -9 33
-5 0 -7 3 -6 8 1 4 -2 30 -7 57 -12 73 -14 91 -18 186 -3 48 -7 92 -11 98 -4
6 -3 11 1 11 5 0 8 29 8 64 0 38 5 68 12 75 10 9 13 7 13 -9 0 -14 4 -19 13
-14 9 5 9 4 1 -5 -11 -12 -9 -31 18 -138 6 -24 14 -43 19 -43 4 0 6 -9 4 -20
-2 -11 1 -20 6 -20 6 0 8 -4 4 -9 -3 -5 6 -34 20 -65 14 -30 25 -58 25 -61 0
-14 61 -134 70 -140 6 -4 8 -10 5 -15 -3 -5 5 -16 17 -24 12 -9 19 -16 15 -16
-7 0 47 -92 68 -117 30 -36 35 -43 35 -50 1 -4 19 -26 40 -48 22 -22 40 -46
40 -53 0 -7 3 -11 8 -9 4 3 13 -1 20 -9 7 -8 10 -14 6 -14 -4 0 19 -25 52 -56
32 -31 80 -76 107 -101 26 -25 47 -54 47 -65 0 -10 5 -28 10 -38 6 -10 11 -30
12 -44 1 -15 5 -26 8 -26 3 0 12 -15 19 -33 17 -36 88 -114 111 -119 8 -2 20
-9 25 -16 12 -15 115 -39 158 -37 15 1 27 -2 27 -6 0 -5 11 -4 25 1 14 5 25 6
25 2 0 -9 272 -8 287 1 6 4 14 3 18 -3 4 -6 12 -7 23 -1 9 5 26 5 40 0 14 -5
21 -5 17 0 -3 6 3 10 12 10 41 -1 127 11 132 18 3 5 13 9 21 11 8 2 22 10 31
18 9 8 19 11 22 7 4 -3 7 1 7 11 0 16 4 15 40 -5 22 -13 40 -25 40 -29 0 -3
10 -6 22 -7 11 -1 24 -6 27 -10 3 -5 15 -8 26 -8 11 0 26 -4 33 -9 6 -4 12 -5
12 -2 0 4 10 2 21 -5 17 -9 20 -8 14 2 -6 8 -4 10 5 4 13 -8 51 -13 155 -19
33 -2 62 -5 65 -6 3 -1 10 -1 15 0 6 1 57 4 115 6 144 6 190 10 197 17 3 4 13
2 23 -3 10 -5 20 -6 24 -3 12 12 39 15 191 17 184 3 211 8 221 44 11 41 11 44
-2 87 -6 22 -13 47 -15 55 -2 8 -8 18 -14 22 -5 4 -10 12 -10 17 0 5 -11 22
-25 38 -23 25 -24 31 -13 53 7 14 11 31 8 38 -2 6 -1 12 4 12 5 0 8 10 7 22
-1 13 1 25 5 28 4 3 9 34 12 70 3 35 11 66 16 68 6 2 11 8 11 13 0 9 18 31 93
110 15 16 27 32 27 34 0 2 14 19 30 37 17 18 30 36 30 41 0 4 4 13 10 20 52
64 110 154 135 207 17 36 32 67 35 70 3 3 16 25 29 50 34 64 39 67 47 26 7
-38 -30 -201 -48 -212 -4 -3 -6 -9 -3 -14 3 -5 -2 -24 -12 -42 -9 -18 -18 -41
-20 -51 -2 -9 -22 -54 -45 -100 -23 -45 -41 -85 -40 -89 1 -5 -2 -8 -7 -8 -5
0 -23 -29 -41 -65 -18 -36 -37 -65 -42 -65 -5 0 -7 -4 -3 -9 3 -5 1 -12 -5
-16 -17 -11 -11 -35 8 -32 10 1 39 17 65 35 27 17 51 32 55 32 4 0 15 8 24 18
8 9 31 28 49 42 43 32 159 145 159 155 0 4 13 19 28 33 16 15 31 32 33 37 11
27 52 85 59 85 4 0 10 8 14 17 3 10 15 32 25 48 11 17 30 49 42 72 13 24 27
43 32 43 6 0 8 3 5 6 -3 3 12 37 33 76 21 39 39 77 39 85 0 7 4 21 9 31 25 46
41 93 36 101 -3 5 -1 11 5 13 5 1 12 21 15 43 4 22 8 51 11 65 3 14 7 45 9 70
2 25 4 45 5 45 5 0 10 71 15 190 7 167 12 220 24 244 17 30 0 273 -20 297 -5
6 -6 13 -4 16 3 3 -2 27 -10 53 -9 26 -14 49 -12 52 3 2 -1 20 -9 39 -13 31
-39 132 -50 192 -2 12 -6 34 -10 50 -3 15 -7 41 -10 57 -3 17 -7 41 -10 55 -3
14 -7 43 -9 65 -2 22 -7 58 -10 80 -6 48 -17 177 -19 223 0 17 -3 32 -6 32 -3
0 -5 30 -6 68 0 37 -4 112 -8 167 -3 55 -9 134 -12 175 -2 41 -7 86 -11 100
-3 14 -7 45 -8 70 -4 50 -22 195 -25 195 -1 0 -3 16 -5 35 -2 19 -6 49 -9 65
-7 42 -12 73 -21 125 -8 53 -13 75 -15 75 -1 0 -3 14 -5 30 -5 46 -43 189 -66
248 -30 78 -82 191 -91 197 -4 3 -12 17 -18 30 -20 46 -37 70 -43 63 -4 -3 -7
3 -7 15 0 12 -4 22 -10 22 -5 0 -10 4 -10 9 0 6 -13 24 -30 42 -16 18 -28 34
-26 36 2 2 -40 48 -93 103 -53 54 -98 97 -100 95 -2 -3 -16 11 -32 31 -15 19
-30 34 -32 32 -3 -2 -18 8 -34 22 -42 37 -183 132 -183 123 0 -5 -4 -3 -8 3
-4 6 -34 25 -67 43 -33 18 -66 38 -72 43 -7 6 -13 7 -13 2 0 -5 -4 -4 -8 2 -4
6 -20 16 -37 22 -16 6 -75 29 -130 52 -55 23 -110 43 -122 46 -12 2 -35 9 -50
15 -16 6 -29 10 -30 10 -2 -1 -4 -1 -5 0 -14 4 -47 10 -65 12 -13 1 -23 5 -23
8 0 4 -21 10 -47 13 -27 4 -55 9 -63 11 -92 18 -199 27 -353 29 -81 1 -149 1
-150 0z"/>
</g>
</svg>
